<?xml version="1.0" encoding="UTF-8" standalone="no"?>
<svg
   xmlns:dc="http://purl.org/dc/elements/1.1/"
   xmlns:cc="http://creativecommons.org/ns#"
   xmlns:rdf="http://www.w3.org/1999/02/22-rdf-syntax-ns#"
   xmlns:svg="http://www.w3.org/2000/svg"
   xmlns="http://www.w3.org/2000/svg"
   xmlns:sodipodi="http://sodipodi.sourceforge.net/DTD/sodipodi-0.dtd"
   xmlns:inkscape="http://www.inkscape.org/namespaces/inkscape"
   width="4in"
   height="4in"
   viewBox="0 0 101.6 101.6"
   version="1.1"
   id="svg8"
   inkscape:version="1.0.1 (3bc2e813f5, 2020-09-07)"
   sodipodi:docname="datawires_logo_2.svg"
   inkscape:export-filename="/home/jeanieandie/2021/datawires_logo.png"
   inkscape:export-xdpi="96"
   inkscape:export-ydpi="96">
  <defs
     id="defs2" />
  <sodipodi:namedview
     id="base"
     pagecolor="#ffffff"
     bordercolor="#666666"
     borderopacity="1.0"
     inkscape:pageopacity="0.0"
     inkscape:pageshadow="2"
     inkscape:zoom="1.4"
     inkscape:cx="173.16513"
     inkscape:cy="217.91738"
     inkscape:document-units="in"
     inkscape:current-layer="g117"
     inkscape:document-rotation="0"
     showgrid="false"
     units="in"
     inkscape:pagecheckerboard="true"
     inkscape:window-width="1507"
     inkscape:window-height="1016"
     inkscape:window-x="228"
     inkscape:window-y="16"
     inkscape:window-maximized="0" />
  <metadata
     id="metadata5">
    <rdf:RDF>
      <cc:Work
         rdf:about="">
        <dc:format>image/svg+xml</dc:format>
        <dc:type
           rdf:resource="http://purl.org/dc/dcmitype/StillImage" />
        <dc:title></dc:title>
      </cc:Work>
    </rdf:RDF>
  </metadata>
  <g
     inkscape:label="Layer 1 copy"
     inkscape:groupmode="layer"
     id="g117">
    <text
       xml:space="preserve"
       style="font-style:normal;font-weight:normal;font-size:15.8397px;line-height:1.25;font-family:sans-serif;fill:#000000;fill-opacity:1;stroke:none;stroke-width:0.395992"
       x="-10.166132"
       y="107.59229"
       id="text91"
       transform="scale(1.1886188,0.84131261)"><tspan
         sodipodi:role="line"
         id="tspan89"
         x="-10.166132"
         y="107.59229"
         style="font-size:131.997px;fill:#808080;stroke-width:0.395992">D</tspan></text>
    <text
       xml:space="preserve"
       style="font-style:normal;font-variant:normal;font-weight:normal;font-stretch:normal;font-size:142.419px;line-height:0;font-family:sans-serif;-inkscape-font-specification:sans-serif;fill:#000000;fill-opacity:1;stroke:none;stroke-width:0.284837"
       x="-8.1511469"
       y="105.99255"
       id="text95"
       transform="scale(1.0765503,0.92889294)"><tspan
         sodipodi:role="line"
         id="tspan93"
         x="-8.1511469"
         y="105.99255"
         style="font-style:normal;font-variant:normal;font-weight:normal;font-stretch:normal;font-size:142.419px;line-height:1.35;font-family:sans-serif;-inkscape-font-specification:sans-serif;stroke-width:0.284837">D</tspan></text>
    <text
       xml:space="preserve"
       style="font-style:normal;font-weight:normal;font-size:79.2795px;line-height:1.25;font-family:sans-serif;fill:#ffffff;fill-opacity:1;stroke:none;stroke-width:1.98199"
       x="-27.195755"
       y="68.449371"
       id="text103"
       transform="scale(-0.9439374,1.0593923)"><tspan
         sodipodi:role="line"
         id="tspan101"
         x="-27.195755"
         y="68.449371"
         style="stroke-width:1.98199;fill:#ffffff;">|</tspan></text>
    <g
       aria-label=")"
       transform="scale(1.9760708,-0.50605475)"
       id="g107"
       style="font-style:normal;font-weight:normal;font-size:179.945px;line-height:1.25;font-family:sans-serif;opacity:0.74435414;fill:#000000;fill-opacity:1;stroke:none;stroke-width:4.49863">
      <path
         d="m 9.0225996,-179.67548 28.3875334,52.78437 -21.358432,-52.78437 25.775039,52.39426 -18.745937,-52.39426 c 8.786377,13.8239 15.346872,27.35492 19.681485,40.59307 4.393189,13.23814 6.589783,26.38842 6.589783,39.45083 0,13.12099 -2.196594,26.329844 -6.589783,39.626562 -4.334613,13.296717 -16.340495,32.872609 -26.221914,41.39282 9.490855,-18.768349 21.909098,-32.317622 27.051045,-57.512292 -5.764194,15.235859 -12.05949,28.669391 -18.987253,40.389712 -3.669857,6.208627 -6.947679,13.749783 -11.47216,17.425932 8.753549,-14.946137 18.343408,-35.383885 23.678933,-56.526731 L 9.0225996,-19.411955 C 16.813187,-32.825824 22.612196,-46.15183 26.419627,-59.389972 c 3.866006,-13.296717 5.799009,-26.710587 5.799009,-40.241608 0,-13.53102 -1.933003,-26.88631 -5.799009,-40.06588 -3.807431,-13.17957 -9.60644,-26.50557 -17.3970274,-39.97802 z"
         style="fill:#ffffff;stroke-width:4.49863"
         id="path105"
         sodipodi:nodetypes="ccccccscccsccccscc" />
    </g>
    <g
       aria-label=")"
       transform="matrix(1.4424751,0,0,-0.36940548,4.8144204,13.884906)"
       id="g111"
       style="font-style:normal;font-weight:normal;font-size:179.945px;line-height:1.25;font-family:sans-serif;opacity:0.82635656;fill:#000000;fill-opacity:1;stroke:none;stroke-width:4.49863">
      <path
         d="m 9.0225996,-179.67548 28.3875334,52.78437 -21.358432,-52.78437 25.775039,52.39426 -18.745937,-52.39426 c 8.786377,13.8239 15.346872,27.35492 19.681485,40.59307 4.393189,13.23814 6.589783,26.38842 6.589783,39.45083 0,13.12099 -2.196594,26.329844 -6.589783,39.626562 -4.334613,13.296717 -16.340495,32.872609 -26.221914,41.39282 9.490855,-18.768349 21.909098,-32.317622 27.051045,-57.512292 -5.764194,15.235859 -12.05949,28.669391 -18.987253,40.389712 -3.669857,6.208627 -6.947679,13.749783 -11.47216,17.425932 8.753549,-14.946137 18.343408,-35.383885 23.678933,-56.526731 L 9.0225996,-19.411955 C 16.813187,-32.825824 22.612196,-46.15183 26.419627,-59.389972 c 3.866006,-13.296717 5.799009,-26.710587 5.799009,-40.241608 0,-13.53102 -1.933003,-26.88631 -5.799009,-40.06588 -3.807431,-13.17957 -9.60644,-26.50557 -17.3970274,-39.97802 z"
         style="fill:#000000;stroke-width:4.49863"
         id="path109"
         sodipodi:nodetypes="ccccccscccsccccscc" />
    </g>
    <g
       aria-label=")"
       transform="matrix(0.95586806,0,0,-0.2447896,9.2048809,26.238504)"
       id="g115"
       style="font-style:normal;font-weight:normal;font-size:179.945px;line-height:1.25;font-family:sans-serif;opacity:0.552243;fill:#808080;fill-opacity:1;stroke:none;stroke-width:4.49863">
      <path
         d="m 9.0225996,-179.67548 28.3875334,52.78437 -21.358432,-52.78437 25.775039,52.39426 -18.745937,-52.39426 c 8.786377,13.8239 15.346872,27.35492 19.681485,40.59307 4.393189,13.23814 6.589783,26.38842 6.589783,39.45083 0,13.12099 -2.196594,26.329844 -6.589783,39.626562 -4.334613,13.296717 -16.340495,32.872609 -26.221914,41.39282 9.490855,-18.768349 21.909098,-32.317622 27.051045,-57.512292 -5.764194,15.235859 -12.05949,28.669391 -18.987253,40.389712 -3.669857,6.208627 -6.947679,13.749783 -11.47216,17.425932 8.753549,-14.946137 18.343408,-35.383885 23.678933,-56.526731 L 9.0225996,-19.411955 C 16.813187,-32.825824 22.612196,-46.15183 26.419627,-59.389972 c 3.866006,-13.296717 5.799009,-26.710587 5.799009,-40.241608 0,-13.53102 -1.933003,-26.88631 -5.799009,-40.06588 -3.807431,-13.17957 -9.60644,-26.50557 -17.3970274,-39.97802 z"
         style="fill:#808080;stroke-width:4.49863"
         id="path113"
         sodipodi:nodetypes="ccccccscccsccccscc" />
    </g>
  </g>
</svg>
